<svg width="199" height="23" viewBox="0 0 199 23" fill="none" xmlns="http://www.w3.org/2000/svg">
<path d="M36.245 16V5.5H38.675V16H36.245ZM48.9069 7.81C49.5469 7.81 50.1169 7.94 50.6169 8.2C51.1269 8.45 51.5269 8.84 51.8169 9.37C52.1069 9.89 52.2519 10.56 52.2519 11.38V16H49.9119V11.74C49.9119 11.09 49.7669 10.61 49.4769 10.3C49.1969 9.99 48.7969 9.835 48.2769 9.835C47.9069 9.835 47.5719 9.915 47.2719 10.075C46.9819 10.225 46.7519 10.46 46.5819 10.78C46.4219 11.1 46.3419 11.51 46.3419 12.01V16H44.0019V7.93H46.2369V10.165L45.8169 9.49C46.1069 8.95 46.5219 8.535 47.0619 8.245C47.6019 7.955 48.2169 7.81 48.9069 7.81ZM60.673 16.12C59.723 16.12 58.983 15.88 58.453 15.4C57.923 14.91 57.658 14.185 57.658 13.225V6.145H59.998V13.195C59.998 13.535 60.088 13.8 60.268 13.99C60.448 14.17 60.693 14.26 61.003 14.26C61.373 14.26 61.688 14.16 61.948 13.96L62.578 15.61C62.338 15.78 62.048 15.91 61.708 16C61.378 16.08 61.033 16.12 60.673 16.12ZM56.413 9.91V8.11H62.008V9.91H56.413ZM70.6475 16.12C69.7275 16.12 68.9175 15.94 68.2175 15.58C67.5275 15.22 66.9925 14.73 66.6125 14.11C66.2325 13.48 66.0425 12.765 66.0425 11.965C66.0425 11.155 66.2275 10.44 66.5975 9.82C66.9775 9.19 67.4925 8.7 68.1425 8.35C68.7925 7.99 69.5275 7.81 70.3475 7.81C71.1375 7.81 71.8475 7.98 72.4775 8.32C73.1175 8.65 73.6225 9.13 73.9925 9.76C74.3625 10.38 74.5475 11.125 74.5475 11.995C74.5475 12.085 74.5425 12.19 74.5325 12.31C74.5225 12.42 74.5125 12.525 74.5025 12.625H67.9475V11.26H73.2725L72.3725 11.665C72.3725 11.245 72.2875 10.88 72.1175 10.57C71.9475 10.26 71.7125 10.02 71.4125 9.85C71.1125 9.67 70.7625 9.58 70.3625 9.58C69.9625 9.58 69.6075 9.67 69.2975 9.85C68.9975 10.02 68.7625 10.265 68.5925 10.585C68.4225 10.895 68.3375 11.265 68.3375 11.695V12.055C68.3375 12.495 68.4325 12.885 68.6225 13.225C68.8225 13.555 69.0975 13.81 69.4475 13.99C69.8075 14.16 70.2275 14.245 70.7075 14.245C71.1375 14.245 71.5125 14.18 71.8325 14.05C72.1625 13.92 72.4625 13.725 72.7325 13.465L73.9775 14.815C73.6075 15.235 73.1425 15.56 72.5825 15.79C72.0225 16.01 71.3775 16.12 70.6475 16.12ZM79.1054 16V7.93H81.3404V10.21L81.0254 9.55C81.2654 8.98 81.6504 8.55 82.1804 8.26C82.7104 7.96 83.3554 7.81 84.1154 7.81V9.97C84.0154 9.96 83.9254 9.955 83.8454 9.955C83.7654 9.945 83.6804 9.94 83.5904 9.94C82.9504 9.94 82.4304 10.125 82.0304 10.495C81.6404 10.855 81.4454 11.42 81.4454 12.19V16H79.1054ZM93.4264 7.81C94.0664 7.81 94.6364 7.94 95.1364 8.2C95.6464 8.45 96.0464 8.84 96.3364 9.37C96.6264 9.89 96.7714 10.56 96.7714 11.38V16H94.4314V11.74C94.4314 11.09 94.2864 10.61 93.9964 10.3C93.7164 9.99 93.3164 9.835 92.7964 9.835C92.4264 9.835 92.0914 9.915 91.7914 10.075C91.5014 10.225 91.2714 10.46 91.1014 10.78C90.9414 11.1 90.8614 11.51 90.8614 12.01V16H88.5214V7.93H90.7564V10.165L90.3364 9.49C90.6264 8.95 91.0414 8.535 91.5814 8.245C92.1214 7.955 92.7364 7.81 93.4264 7.81ZM105.956 16.12C105.036 16.12 104.226 15.94 103.526 15.58C102.836 15.22 102.301 14.73 101.921 14.11C101.541 13.48 101.351 12.765 101.351 11.965C101.351 11.155 101.536 10.44 101.906 9.82C102.286 9.19 102.801 8.7 103.451 8.35C104.101 7.99 104.836 7.81 105.656 7.81C106.446 7.81 107.156 7.98 107.786 8.32C108.426 8.65 108.931 9.13 109.301 9.76C109.671 10.38 109.856 11.125 109.856 11.995C109.856 12.085 109.851 12.19 109.841 12.31C109.831 12.42 109.821 12.525 109.811 12.625H103.256V11.26H108.581L107.681 11.665C107.681 11.245 107.596 10.88 107.426 10.57C107.256 10.26 107.021 10.02 106.721 9.85C106.421 9.67 106.071 9.58 105.671 9.58C105.271 9.58 104.916 9.67 104.606 9.85C104.306 10.02 104.071 10.265 103.901 10.585C103.731 10.895 103.646 11.265 103.646 11.695V12.055C103.646 12.495 103.741 12.885 103.931 13.225C104.131 13.555 104.406 13.81 104.756 13.99C105.116 14.16 105.536 14.245 106.016 14.245C106.446 14.245 106.821 14.18 107.141 14.05C107.471 13.92 107.771 13.725 108.041 13.465L109.286 14.815C108.916 15.235 108.451 15.56 107.891 15.79C107.331 16.01 106.686 16.12 105.956 16.12ZM117.714 16.12C116.764 16.12 116.024 15.88 115.494 15.4C114.964 14.91 114.699 14.185 114.699 13.225V6.145H117.039V13.195C117.039 13.535 117.129 13.8 117.309 13.99C117.489 14.17 117.734 14.26 118.044 14.26C118.414 14.26 118.729 14.16 118.989 13.96L119.619 15.61C119.379 15.78 119.089 15.91 118.749 16C118.419 16.08 118.074 16.12 117.714 16.12ZM113.454 9.91V8.11H119.049V9.91H113.454ZM123.486 12.715V10.84H127.731V12.715H123.486ZM134.972 9.73H140.027V11.62H134.972V9.73ZM135.152 14.05H140.867V16H132.737V5.5H140.672V7.45H135.152V14.05ZM144.528 16L148.143 11.26L148.098 12.55L144.633 7.93H147.258L149.448 10.945L148.458 10.975L150.723 7.93H153.213L149.733 12.505V11.245L153.333 16H150.678L148.383 12.79L149.358 12.925L147.078 16H144.528ZM162.239 16.12C161.559 16.12 160.964 15.97 160.454 15.67C159.944 15.37 159.544 14.915 159.254 14.305C158.974 13.685 158.834 12.905 158.834 11.965C158.834 11.015 158.969 10.235 159.239 9.625C159.509 9.015 159.899 8.56 160.409 8.26C160.919 7.96 161.529 7.81 162.239 7.81C162.999 7.81 163.679 7.985 164.279 8.335C164.889 8.675 165.369 9.155 165.719 9.775C166.079 10.395 166.259 11.125 166.259 11.965C166.259 12.815 166.079 13.55 165.719 14.17C165.369 14.79 164.889 15.27 164.279 15.61C163.679 15.95 162.999 16.12 162.239 16.12ZM157.469 18.91V7.93H159.704V9.58L159.659 11.98L159.809 14.365V18.91H157.469ZM161.834 14.2C162.224 14.2 162.569 14.11 162.869 13.93C163.179 13.75 163.424 13.495 163.604 13.165C163.794 12.825 163.889 12.425 163.889 11.965C163.889 11.495 163.794 11.095 163.604 10.765C163.424 10.435 163.179 10.18 162.869 10C162.569 9.82 162.224 9.73 161.834 9.73C161.444 9.73 161.094 9.82 160.784 10C160.474 10.18 160.229 10.435 160.049 10.765C159.869 11.095 159.779 11.495 159.779 11.965C159.779 12.425 159.869 12.825 160.049 13.165C160.229 13.495 160.474 13.75 160.784 13.93C161.094 14.11 161.444 14.2 161.834 14.2ZM174.83 16.12C173.91 16.12 173.1 15.94 172.4 15.58C171.71 15.22 171.175 14.73 170.795 14.11C170.415 13.48 170.225 12.765 170.225 11.965C170.225 11.155 170.41 10.44 170.78 9.82C171.16 9.19 171.675 8.7 172.325 8.35C172.975 7.99 173.71 7.81 174.53 7.81C175.32 7.81 176.03 7.98 176.66 8.32C177.3 8.65 177.805 9.13 178.175 9.76C178.545 10.38 178.73 11.125 178.73 11.995C178.73 12.085 178.725 12.19 178.715 12.31C178.705 12.42 178.695 12.525 178.685 12.625H172.13V11.26H177.455L176.555 11.665C176.555 11.245 176.47 10.88 176.3 10.57C176.13 10.26 175.895 10.02 175.595 9.85C175.295 9.67 174.945 9.58 174.545 9.58C174.145 9.58 173.79 9.67 173.48 9.85C173.18 10.02 172.945 10.265 172.775 10.585C172.605 10.895 172.52 11.265 172.52 11.695V12.055C172.52 12.495 172.615 12.885 172.805 13.225C173.005 13.555 173.28 13.81 173.63 13.99C173.99 14.16 174.41 14.245 174.89 14.245C175.32 14.245 175.695 14.18 176.015 14.05C176.345 13.92 176.645 13.725 176.915 13.465L178.16 14.815C177.79 15.235 177.325 15.56 176.765 15.79C176.205 16.01 175.56 16.12 174.83 16.12ZM183.288 16V7.93H185.523V10.21L185.208 9.55C185.448 8.98 185.833 8.55 186.363 8.26C186.893 7.96 187.538 7.81 188.298 7.81V9.97C188.198 9.96 188.108 9.955 188.028 9.955C187.948 9.945 187.863 9.94 187.773 9.94C187.133 9.94 186.613 10.125 186.213 10.495C185.823 10.855 185.628 11.42 185.628 12.19V16H183.288ZM196.268 16.12C195.318 16.12 194.578 15.88 194.048 15.4C193.518 14.91 193.253 14.185 193.253 13.225V6.145H195.593V13.195C195.593 13.535 195.683 13.8 195.863 13.99C196.043 14.17 196.288 14.26 196.598 14.26C196.968 14.26 197.283 14.16 197.543 13.96L198.173 15.61C197.933 15.78 197.643 15.91 197.303 16C196.973 16.08 196.628 16.12 196.268 16.12ZM192.008 9.91V8.11H197.603V9.91H192.008Z" fill="black"/>
<path d="M0 11.0157L10.9669 6.08261e-06L21.9338 11.0157L10.9669 22.0315L0 11.0157Z" fill="#9065D7"/>
</svg>
